<?xml version="1.0" standalone="no"?>
<!DOCTYPE svg PUBLIC "-//W3C//DTD SVG 20010904//EN"
 "http://www.w3.org/TR/2001/REC-SVG-20010904/DTD/svg10.dtd">
<svg version="1.0" xmlns="http://www.w3.org/2000/svg"
 width="140.000000pt" height="140.000000pt" viewBox="0 0 140.000000 140.000000"
 preserveAspectRatio="xMidYMid meet">
<metadata>
Created by potrace 1.14, written by Peter Selinger 2001-2017
</metadata>
<g transform="translate(0.000000,140.000000) scale(0.100000,-0.100000)"
fill="#000000" stroke="none">
<path d="M1275 1272 c-59 -13 -171 -128 -216 -223 -14 -27 -39 -51 -88 -82
-117 -76 -107 -77 -107 6 0 90 -24 135 -88 167 -169 81 -473 -72 -613 -309
-50 -86 -63 -122 -70 -206 -9 -117 35 -225 110 -270 23 -13 27 -22 22 -39 -30
-94 -28 -161 9 -211 24 -33 27 -12 5 33 -25 50 -27 95 -5 146 15 36 18 38 49
31 60 -14 172 -14 242 1 143 29 325 142 413 257 55 70 74 119 119 298 38 150
38 153 78 181 90 64 155 121 175 154 33 53 20 78 -35 66z m38 -18 c11 -12 -21
-60 -70 -104 -45 -40 -116 -90 -128 -90 -9 0 30 71 64 118 44 60 112 98 134
76z m-535 -129 c49 -30 74 -77 74 -142 0 -70 -14 -108 -44 -124 -62 -33 -292
-208 -371 -283 -44 -41 -49 -42 -68 -18 -19 22 -23 61 -10 95 14 35 27 35 26
0 0 -21 5 -29 22 -31 36 -5 63 15 63 48 0 70 -94 61 -125 -13 -16 -39 -9 -85
18 -115 l21 -22 -35 -37 c-19 -21 -37 -40 -40 -43 -3 -3 -20 -24 -36 -48 l-31
-42 -30 25 c-82 69 -88 247 -12 401 71 145 214 289 337 340 85 36 188 40 241
9z m207 -250 c-80 -221 -154 -338 -275 -436 -134 -109 -311 -151 -438 -104
-15 6 4 37 76 123 39 47 48 53 71 46 36 -9 90 -6 126 8 108 42 236 182 287
313 12 32 32 52 98 97 46 32 85 56 87 54 2 -1 -13 -47 -32 -101z m-181 -70
c-65 -157 -223 -295 -338 -295 -52 0 -61 8 -38 36 38 45 380 310 389 300 2 -1
-4 -20 -13 -41z"/>
</g>
</svg>
